<?xml version="1.0" encoding="UTF-8" standalone="no"?>
<!-- Created with Inkscape (http://www.inkscape.org/) -->

<svg
   width="900.00006"
   height="900"
   viewBox="0 0 238.12502 238.125"
   version="1.1"
   id="svg1"
   inkscape:version="1.4.3 (0d15f75042, 2025-12-25)"
   sodipodi:docname="brand-stuff.svg"
   xml:space="preserve"
   inkscape:export-filename="linkedin-cover.png"
   inkscape:export-xdpi="96"
   inkscape:export-ydpi="96"
   xmlns:inkscape="http://www.inkscape.org/namespaces/inkscape"
   xmlns:sodipodi="http://sodipodi.sourceforge.net/DTD/sodipodi-0.dtd"
   xmlns="http://www.w3.org/2000/svg"
   xmlns:svg="http://www.w3.org/2000/svg"><sodipodi:namedview
     id="namedview1"
     pagecolor="#505050"
     bordercolor="#eeeeee"
     borderopacity="1"
     inkscape:showpageshadow="0"
     inkscape:pageopacity="0"
     inkscape:pagecheckerboard="0"
     inkscape:deskcolor="#505050"
     inkscape:document-units="mm"
     inkscape:zoom="0.22627415"
     inkscape:cx="27886.526"
     inkscape:cy="-6412.5751"
     inkscape:window-width="1920"
     inkscape:window-height="1048"
     inkscape:window-x="0"
     inkscape:window-y="0"
     inkscape:window-maximized="1"
     inkscape:current-layer="layer5"
     showborder="false"
     borderlayer="false"
     showgrid="false"><inkscape:page
       x="0"
       y="0"
       width="238.12502"
       height="238.125"
       id="page2"
       margin="0"
       bleed="0" /></sodipodi:namedview><defs
     id="defs1"><style
       id="style1">
      .cls-1 {
        fill: #1d63ed;
        stroke-width: 0px;
      }
    </style></defs><g
     inkscape:groupmode="layer"
     id="layer5"
     inkscape:label="Layer 6"
     transform="translate(-7869.4086,1746.386)">
            ,,,
            
            
          <g
   style="fill:none"
   id="g5"
   transform="matrix(0.26458333,0,0,0.26458333,7750.3462,-1865.4485)"><path
     d="m 1000.46,450 c 174.31,0 277.97,103.669 277.97,241.282 0,137.614 -103.66,241.281 -277.97,241.281 H 912.382 L 1350,1350 H 1040.82 L 707.794,1033.48 c -23.85,-22.01 -34.858,-47.699 -34.859,-69.715 0,-31.193 22.024,-58.716 64.226,-70.643 L 908.712,847.244 C 973.85,829.812 1018.81,779.353 1018.81,713.298 1018.8,632.567 952.745,585.78 871.095,585.78 H 450 V 450 Z"
     fill="#000000"
     id="path1-1" /></g></g></svg>
